<svg width="21" height="21" viewBox="0 0 21 21" fill="none" xmlns="http://www.w3.org/2000/svg">
<path d="M12.1831 10.3246L9.82483 9.22423C9.61903 9.12868 9.44998 9.23578 9.44998 9.46363V11.5363C9.44998 11.7642 9.61903 11.8713 9.82483 11.7757L12.1821 10.6753C12.3889 10.5787 12.3889 10.4212 12.1831 10.3246ZM10.5 0.419983C4.93288 0.419983 0.419983 4.93288 0.419983 10.5C0.419983 16.0671 4.93288 20.58 10.5 20.58C16.0671 20.58 20.58 16.0671 20.58 10.5C20.58 4.93288 16.0671 0.419983 10.5 0.419983ZM10.5 14.595C5.34028 14.595 5.24998 14.1298 5.24998 10.5C5.24998 6.87013 5.34028 6.40498 10.5 6.40498C15.6597 6.40498 15.75 6.87013 15.75 10.5C15.75 14.1298 15.6597 14.595 10.5 14.595Z" fill="#BDBDBD"/>
</svg>
